solid OpenSCAD_Model
  facet normal -0 0 1
    outer loop
      vertex -10.95 10.95 3.625
      vertex 10.95 -10.95 3.625
      vertex 10.95 10.95 3.625
    endloop
  endfacet
  facet normal 0 0 1
    outer loop
      vertex 10.95 -10.95 3.625
      vertex -10.95 10.95 3.625
      vertex -10.95 -10.95 3.625
    endloop
  endfacet
  facet normal 0 0 -1
    outer loop
      vertex -10.95 -10.95 1.375
      vertex 10.95 10.95 1.375
      vertex 10.95 -10.95 1.375
    endloop
  endfacet
  facet normal -0 0 -1
    outer loop
      vertex 10.95 10.95 1.375
      vertex -10.95 -10.95 1.375
      vertex -10.95 10.95 1.375
    endloop
  endfacet
  facet normal 0 -1 0
    outer loop
      vertex -10.95 -10.95 1.375
      vertex 10.95 -10.95 3.625
      vertex -10.95 -10.95 3.625
    endloop
  endfacet
  facet normal 0 -1 -0
    outer loop
      vertex 10.95 -10.95 3.625
      vertex -10.95 -10.95 1.375
      vertex 10.95 -10.95 1.375
    endloop
  endfacet
  facet normal 1 -0 0
    outer loop
      vertex 10.95 -10.95 3.625
      vertex 10.95 10.95 1.375
      vertex 10.95 10.95 3.625
    endloop
  endfacet
  facet normal 1 0 0
    outer loop
      vertex 10.95 10.95 1.375
      vertex 10.95 -10.95 3.625
      vertex 10.95 -10.95 1.375
    endloop
  endfacet
  facet normal 0 1 -0
    outer loop
      vertex 10.95 10.95 1.375
      vertex -10.95 10.95 3.625
      vertex 10.95 10.95 3.625
    endloop
  endfacet
  facet normal 0 1 0
    outer loop
      vertex -10.95 10.95 3.625
      vertex 10.95 10.95 1.375
      vertex -10.95 10.95 1.375
    endloop
  endfacet
  facet normal -1 0 0
    outer loop
      vertex -10.95 -10.95 1.375
      vertex -10.95 10.95 3.625
      vertex -10.95 10.95 1.375
    endloop
  endfacet
  facet normal -1 -0 0
    outer loop
      vertex -10.95 10.95 3.625
      vertex -10.95 -10.95 1.375
      vertex -10.95 -10.95 3.625
    endloop
  endfacet
endsolid OpenSCAD_Model
