solid OpenSCAD_Model
  facet normal -0 0 1
    outer loop
      vertex -8.50278 8.50278 3.625
      vertex 8.50278 -8.50278 3.625
      vertex 8.50278 8.50278 3.625
    endloop
  endfacet
  facet normal 0 0 1
    outer loop
      vertex 8.50278 -8.50278 3.625
      vertex -8.50278 8.50278 3.625
      vertex -8.50278 -8.50278 3.625
    endloop
  endfacet
  facet normal 0 0 -1
    outer loop
      vertex -8.50278 -8.50278 1.375
      vertex 8.50278 8.50278 1.375
      vertex 8.50278 -8.50278 1.375
    endloop
  endfacet
  facet normal -0 0 -1
    outer loop
      vertex 8.50278 8.50278 1.375
      vertex -8.50278 -8.50278 1.375
      vertex -8.50278 8.50278 1.375
    endloop
  endfacet
  facet normal 0 -1 0
    outer loop
      vertex -8.50278 -8.50278 1.375
      vertex 8.50278 -8.50278 3.625
      vertex -8.50278 -8.50278 3.625
    endloop
  endfacet
  facet normal 0 -1 -0
    outer loop
      vertex 8.50278 -8.50278 3.625
      vertex -8.50278 -8.50278 1.375
      vertex 8.50278 -8.50278 1.375
    endloop
  endfacet
  facet normal 1 -0 0
    outer loop
      vertex 8.50278 -8.50278 3.625
      vertex 8.50278 8.50278 1.375
      vertex 8.50278 8.50278 3.625
    endloop
  endfacet
  facet normal 1 0 0
    outer loop
      vertex 8.50278 8.50278 1.375
      vertex 8.50278 -8.50278 3.625
      vertex 8.50278 -8.50278 1.375
    endloop
  endfacet
  facet normal 0 1 -0
    outer loop
      vertex 8.50278 8.50278 1.375
      vertex -8.50278 8.50278 3.625
      vertex 8.50278 8.50278 3.625
    endloop
  endfacet
  facet normal 0 1 0
    outer loop
      vertex -8.50278 8.50278 3.625
      vertex 8.50278 8.50278 1.375
      vertex -8.50278 8.50278 1.375
    endloop
  endfacet
  facet normal -1 0 0
    outer loop
      vertex -8.50278 -8.50278 1.375
      vertex -8.50278 8.50278 3.625
      vertex -8.50278 8.50278 1.375
    endloop
  endfacet
  facet normal -1 -0 0
    outer loop
      vertex -8.50278 8.50278 3.625
      vertex -8.50278 -8.50278 1.375
      vertex -8.50278 -8.50278 3.625
    endloop
  endfacet
endsolid OpenSCAD_Model
